/* XPM */
static char * icon_xpm[] = {
"64 64 199 2",
"  	c None",
". 	c #F8931E",
"+ 	c #F39326",
"@ 	c #B59171",
"# 	c #6E90B2",
"$ 	c #508FC7",
"% 	c #4A8FCB",
"& 	c #75A3D1",
"* 	c #B8C9D9",
"= 	c #D5D9DD",
"- 	c #DCDDDE",
"; 	c #F8931F",
"> 	c #B19174",
", 	c #4E8FC9",
"' 	c #6CA0CF",
") 	c #D0D7DC",
"! 	c #F29327",
"~ 	c #6F90B1",
"{ 	c #97B6D4",
"] 	c #F49324",
"^ 	c #648FBA",
"/ 	c #9DB9D5",
"( 	c #85909F",
"_ 	c #79A7D1",
": 	c #D3924F",
"< 	c #4E91CB",
"[ 	c #D7DBDD",
"} 	c #6990B7",
"| 	c #93B4D4",
"1 	c #E89335",
"2 	c #CFD6DC",
"3 	c #5292CC",
"4 	c #8D9098",
"5 	c #70A0D0",
"6 	c #7D90A5",
"7 	c #7DA9D2",
"8 	c #7790AA",
"9 	c #86ADD3",
"0 	c #619BCF",
"a 	c #83ADD5",
"b 	c #98B9D8",
"c 	c #9DBCDA",
"d 	c #8CB3D6",
"e 	c #78A7D3",
"f 	c #5393CC",
"g 	c #D1D6DC",
"h 	c #B6C7D9",
"i 	c #A3BCD6",
"j 	c #9AB8D5",
"k 	c #9EBAD5",
"l 	c #A6BED7",
"m 	c #BCCBDA",
"n 	c #D4D9DD",
"o 	c #4D90CB",
"p 	c #CDD8E3",
"q 	c #E6E8E8",
"r 	c #E2E6E7",
"s 	c #B5CADF",
"t 	c #699FD1",
"u 	c #B0C3D8",
"v 	c #71A1D0",
"w 	c #4B90CB",
"x 	c #CED5DC",
"y 	c #CAD6E2",
"z 	c #E5E7E8",
"A 	c #9CBBD9",
"B 	c #4C8FCB",
"C 	c #D4D8DD",
"D 	c #77A6D1",
"E 	c #BCCADA",
"F 	c #659DD0",
"G 	c #D7DFE5",
"H 	c #A7C2DC",
"I 	c #5A96CD",
"J 	c #DADBDE",
"K 	c #D0DAE3",
"L 	c #84AED6",
"M 	c #9DBBD9",
"N 	c #B1C7DE",
"O 	c #689ED0",
"P 	c #7BA9D4",
"Q 	c #4E91CC",
"R 	c #8FB3D3",
"S 	c #9FBAD6",
"T 	c #BECCDA",
"U 	c #C3CEDB",
"V 	c #B8C9DA",
"W 	c #78A6D1",
"X 	c #DDE3E6",
"Y 	c #A6C1DB",
"Z 	c #CFDAE3",
"` 	c #84AED5",
" .	c #7EAAD2",
"..	c #8BB0D3",
"+.	c #92B3D4",
"@.	c #87AFD6",
"#.	c #DEE2E6",
"$.	c #7FABD4",
"%.	c #B2C8DE",
"&.	c #81ABD2",
"*.	c #639BCE",
"=.	c #B0C6DD",
"-.	c #B7CADF",
";.	c #5092CC",
">.	c #E3E6E7",
",.	c #CFD9E3",
"'.	c #5B97CD",
").	c #D8DBDE",
"!.	c #CDD8E2",
"~.	c #B3C8DE",
"{.	c #77A6D3",
"].	c #DCE2E6",
"^.	c #B6C8D9",
"/.	c #6A90B5",
"(.	c #DFE3E6",
"_.	c #DBDCDE",
":.	c #4C91CB",
"<.	c #85AED3",
"[.	c #C5D0DB",
"}.	c #CDD4DC",
"|.	c #629ACE",
"1.	c #5494CD",
"2.	c #8CB1D3",
"3.	c #E1E5E7",
"4.	c #C6D0DB",
"5.	c #87AED3",
"6.	c #73A3D0",
"7.	c #CDD5DC",
"8.	c #91B3D4",
"9.	c #C7D5E1",
"0.	c #9BB7D5",
"a.	c #A6C1DC",
"b.	c #D7DEE5",
"c.	c #93B3D4",
"d.	c #C7D1DB",
"e.	c #5795CD",
"f.	c #88AFD3",
"g.	c #75A6D3",
"h.	c #89B0D2",
"i.	c #A1BDDA",
"j.	c #93B6D8",
"k.	c #C3D2E0",
"l.	c #7CA8D2",
"m.	c #5C98CD",
"n.	c #94B4D4",
"o.	c #699DCF",
"p.	c #B9CCDF",
"q.	c #A4C0DB",
"r.	c #ABC4DC",
"s.	c #BCCEE0",
"t.	c #D6DEE4",
"u.	c #5593CC",
"v.	c #75A3D0",
"w.	c #8EB2D3",
"x.	c #9CB8D5",
"y.	c #8DB2D3",
"z.	c #5F99CE",
"A.	c #9FBDDA",
"B.	c #689ECF",
"C.	c #A2BEDB",
"D.	c #5494CC",
"E.	c #7CAAD4",
"F.	c #D3DBE4",
"G.	c #E4E7E8",
"H.	c #6D9FCF",
"I.	c #C6D1DB",
"J.	c #7FACD5",
"K.	c #BDCFE0",
"L.	c #93B6D7",
"M.	c #5D99CE",
"N.	c #8DB1D3",
"O.	c #6A9ECF",
"P.	c #649CCE",
"Q.	c #609ACF",
"R.	c #6AA0D1",
"S.	c #649CCF",
"T.	c #5F99CF",
"U.	c #CBD3DB",
"V.	c #C4CFDA",
"W.	c #9E9188",
"X.	c #6199CE",
"Y.	c #D99248",
"Z.	c #D7DADD",
"`.	c #5A8FC1",
" +	c #BF9266",
".+	c #7190B0",
"++	c #EF932A",
"@+	c #588FC2",
"#+	c #ADC2D8",
"$+	c #EE932D",
"%+	c #638FBB",
"&+	c #A7BFD7",
"*+	c #F69321",
"=+	c #A29182",
"-+	c #4C8FCA",
";+	c #F09329",
">+	c #AB917A",
",+	c #4E8FC8",
"'+	c #D6DADD",
"              . . . . + @ # $ % % % % % % % % % % % % % % % % % % % % % % % % % & * = - - - - - - - - - - - - - -               ",
"          . . . . ; > , % % % % % % % % % % % % % % % % % % % % % % % % % % ' ) - - - - - - - - - - - - - - - - - - -           ",
"        . . . . ! ~ % % % % % % % % % % % % % % % % % % % % % % % % % % % { - - - - - - - - - - - - - - - - - - - - - -         ",
"      . . . . ] ^ % % % % % % % % % % % % % % % % % % % % % % % % % % % / - - - - - - - - - - - - - - - - - - - - - - - -       ",
"    . . . . . ( % % % % % % % % % % % % % % % % % % % % % % % % % % % _ - - - - - - - - - - - - - - - - - - - - - - - - - -     ",
"  . . . . . : % % % % % % % % % % % % % % % % % % % % % % % % % % % < [ - - - - - - - - - - - - - - - - - - - - - - - - - - -   ",
"  . . . . . } % % % % % % % % % % % % % % % % % % % % % % % % % % % | - - - - - - - - - - - - - - - - - - - - - - - - - - - -   ",
". . . . . 1 % % % % % % % % % % % % % % % % % % % % % % % % % % % % 2 - - - - - - - - - - - - - - - - - - - - - - - - - - - - - ",
". . . . . @ % % % % % % % % % % % % % % % % % % % % % % % % % % % 3 - - - - - - - - - - - - - - - - - - - - - - - - - - - - - - ",
". . . . . 4 % % % % % % % % % % % % % % % % % % % % % % % % % % % 5 - - - - - - - - - - - - - - - - - - - - - - - - - - - - - - ",
". . . . . 6 % % % % % % % % % % % % % % % % % % % % % % % % % % % 7 - - - - - - - - - - - - - - - - - - - - - - - - - - - - - - ",
". . . . . 8 % % % % % % % % % % % % % % % % % % % % % % % % % % % 9 - - - - - - - - - - - - - - - - - - - - - - - - - - - - - - ",
". . . . . 8 % % % % % % % % % % % % % % % % % % % % % % % % % % % 9 - - - - - - - - - - - - - - - - - - - - - - - - - - - - - - ",
". . . . . 8 % % % % % % % % % % % % % % % % % % % % % % % % % % % 9 - - - - - - - - - - - - - - - - - - - - - - - - - - - - - - ",
". . . . . 8 % % % % % % % % % % % % % % % % % % % % % % % % % % % 9 - - - - - - - - - - - - - - - - - - - - - - - - - - - - - - ",
". . . . . 8 % % % % % % % % % % % % % % % % % % % % % % % % % % % 9 - - - - - - - - - - - - - - - - - - - - - - - - - - - - - - ",
". . . . . 8 % % % % % % % % % % % % % % % % % % % % % % % % % % % 9 - - - - - - - - - - - - - - - - - - - - - - - - - - - - - - ",
". . . . . 8 % % % % % % % % % % % % % % % % % % % % % % % % % % % 9 - - - - - - - - - - - - - - - - - - - - - - - - - - - - - - ",
". . . . . 8 % % % % % % % % % % % % % % % % % % % % % % % % % % % 9 - - - - - - - - - - - - - - - - - - - - - - - - - - - - - - ",
". . . . . 8 % % % % % % % % % % % % % % % % % % % % % % % % % % % 9 - - - - - - - - - - - - - - - - - - - - - - - - - - - - - - ",
". . . . . 8 % % % % % % % % % % 0 a b c b d e f % % % % % % % % % 9 - - - - - - - - - - g h i j { k l m n - - - - - - - - - - - ",
". . . . . 8 % % % % % % % o d p q q q q q q q r s t % % % % % % % 9 - - - - - - - - u v % % % % % % % % w 5 j x - - - - - - - - ",
". . . . . 8 % % % % % % 0 y q q q q q q q q q q q z A B % % % % % 9 - - - - - - C D % % % % % % % % % % % % % w E - - - - - - - ",
". . . . . 8 % % % % % F G q q q q q q q q q q q q q q H % % % % % 9 - - - - - - _ % % % % % % % % % % % % % % I J - - - - - - - ",
". . . . . 8 % % % % 3 K q q q q q q q q q q q q q q q q L % % % % 9 - - - - - E % % % % % % % % % % % % % % % { - - - - - - - - ",
". . . . . 8 % % % % M q q q q q q N O w 3 P p q q q q q G Q % % % 9 - - - - - R % % % % % f S T U V S W w % o x - - - - - - - - ",
". . . . . 8 % % % f X q q q q q Y % % % % % f Z q q q q q ` % % % 9 - - - - -  .% % % % % ..- - - - - - x / +.- - - - - - - - - ",
". . . . . 8 % % % @.q q q q q #.f % % % % % % $.q q q q q %.% % % 9 - - - - - &.% % % % % *.C - - - - - - - - - - - - - - - - - ",
". . . . . 8 % % % =.q q q q q -.% % % % % % % ;.>.q q q q ,.% % % 9 - - - - - R % % % % % % '.l ).- - - - - - - - - - - - - - - ",
". . . . . # % % % !.q q q q q ~.{.{.{.{.{.{.{.{.].q q q q ].% % % 9 - - - - - ^.% % % % % % % % I { 2 - - - - - - - - - - - - - ",
". . . . . /.% % % (.q q q q q q q q q q q q q q q q q q q q % % % 9 - - - - - _.' % % % % % % % % % :.<.[.- - - - - - - - - - - ",
". . . . . /.% % % q q q q q q q q q q q q q q q q q q q q q % % % 9 - - - - - - }.|.% % % % % % % % % % w ..n - - - - - - - - - ",
". . . . . /.% % 1.q q q q q q q q q q q q q q q q q q q q q % % % 9 - - - - - - - n 2.w % % % % % % % % % % *.2 - - - - - - - - ",
". . . . . /.% % % q q q q q q 3.X X X X X X X X X X X X X X % % % 9 - - - - - - - - - 4.5.:.% % % % % % % % % 6.- - - - - - - - ",
". . . . . /.% % % ].q q q q q d % % % % % % % % % % % % % % % % % 9 - - - - - - - - - - - 7.8.f % % % % % % % % T - - - - - - - ",
". . . . . /.% % % 9.q q q q q H % % % % % % % % % % % % % % % % % 2.- - - - - - - - - - - - - C 0.3 % % % % % % { - - - - - - - ",
". . . . . /.% % % a.q q q q q b.Q % % % % % % % % % % % % % % % % c.- - - - - - - - - - - - - - - d.e.% % % % % f.- - - - - - - ",
". . . . . /.% % % g.q q q q q q c % % % % % % % % % % % 0 % % % % c.- - - - - [._.- - - - - - - - - h.% % % % % f.- - - - - - - ",
". . . . . /.% % % B !.q q q q q q i.f % % % % % % 0 j.!.k.% % % % c.- - - - - l.m.n.T _.- - - - - [ o.% % % % % { - - - - - - - ",
". . . . . /.% % % % e q q q q q q q #.p.q.q.r.s.t.q q q k.% % % % c.- - - - - l.% % % u.v.w.j x.y.z.% % % % % % m - - - - - - - ",
". . . . . /.% % % % % A.q q q q q q q q q q q q q q q q k.% % % % c.- - - - - l.% % % % % % % % % % % % % % % B._.- - - - - - - ",
". . . . . /.% % % % % B C.q q q q q q q q q q q q q q q k.% % % % c.- - - - - l.% % % % % % % % % % % % % % D.[.- - - - - - - - ",
". . . . . /.% % % % % % % E.F.q q q q q q q q q q q q G.q.% % % % c.- - - - - &.% % % % % % % % % % % % % H.I.- - - - - - - - - ",
". . . . . /.% % % % % % % % o J.~.t.q q q q q q b.K.L.M.% % % % % c.- - - - - _.h N.O.3 % % % % % w P.5.V - - - - - - - - - - - ",
". . . . . /.% % % % % % % % % % % % 3 Q.R.S.T.3 % % % % % % % % % c.- - - - - - - - - - g U.V.d.x ).- - - - - - - - - - - - - - ",
". . . . . /.% % % % % % % % % % % % % % % % % % % % % % % % % % % c.- - - - - - - - - - - - - - - - - - - - - - - - - - - - - - ",
". . . . . /.% % % % % % % % % % % % % % % % % % % % % % % % % % % c.- - - - - - - - - - - - - - - - - - - - - - - - - - - - - - ",
". . . . . /.% % % % % % % % % % % % % % % % % % % % % % % % % % % c.- - - - - - - - - - - - - - - - - - - - - - - - - - - - - - ",
". . . . . /.% % % % % % % % % % % % % % % % % % % % % % % % % % % c.- - - - - - - - - - - - - - - - - - - - - - - - - - - - - - ",
". . . . . /.% % % % % % % % % % % % % % % % % % % % % % % % % % % c.- - - - - - - - - - - - - - - - - - - - - - - - - - - - - - ",
". . . . . /.% % % % % % % % % % % % % % % % % % % % % % % % % % % c.- - - - - - - - - - - - - - - - - - - - - - - - - - - - - - ",
". . . . . /.% % % % % % % % % % % % % % % % % % % % % % % % % % % c.- - - - - - - - - - - - - - - - - - - - - - - - - - - - - - ",
". . . . . /.% % % % % % % % % % % % % % % % % % % % % % % % % % % c.- - - - - - - - - - - - - - - - - - - - - - - - - - - - - - ",
". . . . . /.% % % % % % % % % % % % % % % % % % % % % % % % % % % c.- - - - - - - - - - - - - - - - - - - - - - - - - - - - - - ",
". . . . . 8 % % % % % % % % % % % % % % % % % % % % % % % % % % % &.- - - - - - - - - - - - - - - - - - - - - - - - - - - - - - ",
". . . . . W.% % % % % % % % % % % % % % % % % % % % % % % % % % % X.- - - - - - - - - - - - - - - - - - - - - - - - - - - - - - ",
". . . . . Y.% % % % % % % % % % % % % % % % % % % % % % % % % % % % Z.- - - - - - - - - - - - - - - - - - - - - - - - - - - -   ",
"  . . . . . `.% % % % % % % % % % % % % % % % % % % % % % % % % % % l - - - - - - - - - - - - - - - - - - - - - - - - - - - -   ",
"  . . . . .  +% % % % % % % % % % % % % % % % % % % % % % % % % % % D._.- - - - - - - - - - - - - - - - - - - - - - - - - - -   ",
"    . . . . . .+% % % % % % % % % % % % % % % % % % % % % % % % % % % ..- - - - - - - - - - - - - - - - - - - - - - - - - -     ",
"      . . . . ++@+% % % % % % % % % % % % % % % % % % % % % % % % % % % #+- - - - - - - - - - - - - - - - - - - - - - - -       ",
"        . . . . $+%+% % % % % % % % % % % % % % % % % % % % % % % % % % % &+- - - - - - - - - - - - - - - - - - - - - -         ",
"          . . . . *+=+-+% % % % % % % % % % % % % % % % % % % % % % % % % % D C - - - - - - - - - - - - - - - - - - -           ",
"              . . . . ;+>+/.,+% % % % % % % % % % % % % % % % % % % % % % % % % 7 m '+- - - - - - - - - - - - -                 "};
