/* XPM */
static char * icon_64px_xpm[] = {
"64 64 124 2",
"  	c None",
". 	c #EC601E",
"+ 	c #EC611F",
"@ 	c #EC621F",
"# 	c #EB6320",
"$ 	c #EB6321",
"% 	c #EC6423",
"& 	c #EC6522",
"* 	c #EC6624",
"= 	c #EC6725",
"- 	c #ED6726",
"; 	c #ED6827",
"> 	c #ED6928",
", 	c #EE6A2A",
"' 	c #EE6B2B",
") 	c #EE6C2C",
"! 	c #ED6D2D",
"~ 	c #ED6E2E",
"{ 	c #EE702F",
"] 	c #EF783A",
"^ 	c #EF793B",
"/ 	c #EF7A3C",
"( 	c #EF7B3D",
"_ 	c #F07C3E",
": 	c #F07D3F",
"< 	c #F07D40",
"[ 	c #F07E42",
"} 	c #F17F43",
"| 	c #F08044",
"1 	c #F08145",
"2 	c #F08246",
"3 	c #F18347",
"4 	c #F18448",
"5 	c #F18549",
"6 	c #F1854A",
"7 	c #F1864A",
"8 	c #F2874B",
"9 	c #F2874D",
"0 	c #F2874E",
"a 	c #F1884F",
"b 	c #F18950",
"c 	c #F28A51",
"d 	c #F28B51",
"e 	c #F28B52",
"f 	c #F28C53",
"g 	c #F28D54",
"h 	c #F38E55",
"i 	c #F28F56",
"j 	c #F29057",
"k 	c #F29158",
"l 	c #F3925A",
"m 	c #F3925B",
"n 	c #F3935C",
"o 	c #EE7131",
"p 	c #F2945D",
"q 	c #F3955E",
"r 	c #F3955F",
"s 	c #F39660",
"t 	c #F39761",
"u 	c #F39862",
"v 	c #F49963",
"w 	c #F49A64",
"x 	c #F39B65",
"y 	c #F59B66",
"z 	c #F49C67",
"A 	c #F49C69",
"B 	c #F49D6A",
"C 	c #F49E6B",
"D 	c #F49E6C",
"E 	c #F59F6D",
"F 	c #F5A06E",
"G 	c #F4A16F",
"H 	c #F5A270",
"I 	c #F5A271",
"J 	c #F5A372",
"K 	c #F5A473",
"L 	c #F5A474",
"M 	c #F6A575",
"N 	c #F6A776",
"O 	c #F5A777",
"P 	c #F6A978",
"Q 	c #F6A97A",
"R 	c #F6A97B",
"S 	c #F6AA7C",
"T 	c #F6AB7D",
"U 	c #F7AC7E",
"V 	c #F7AD7F",
"W 	c #F6AE80",
"X 	c #F6AF81",
"Y 	c #F7B083",
"Z 	c #F7B084",
"` 	c #F6AF82",
" .	c #F7B185",
"..	c #F7B186",
"+.	c #F8B187",
"@.	c #F8B288",
"#.	c #F7B389",
"$.	c #F7B48A",
"%.	c #F8B58C",
"&.	c #F8B58D",
"*.	c #F8B68E",
"=.	c #F9B78F",
"-.	c #F9B890",
";.	c #F8B991",
">.	c #F8BA92",
",.	c #F8BA94",
"'.	c #F9BB95",
").	c #F9BB96",
"!.	c #F9BC97",
"~.	c #FABD98",
"{.	c #FABD99",
"].	c #F9BE9A",
"^.	c #F9BF9B",
"/.	c #F9C09C",
"(.	c #FAC19D",
"_.	c #FAC29E",
":.	c #FAC29F",
"<.	c #FBC3A0",
"[.	c #FBC3A1",
"}.	c #FAC4A2",
"|.	c #FAC6A4",
"1.	c #FAC6A5",
"2.	c #FBC7A6",
"3.	c #FBC9A9",
"                                                                                                                                ",
"                                                                                                                                ",
"                                                                                                                                ",
"                                                                                                                                ",
"                                                                      . +                                                       ",
"                                                                  . + @ #                                                       ",
"                                                              + @ # $ % & *                                                     ",
"                                                            @ # $ % & * = - ;                                                   ",
"                                                        # $ % & * = - - ; > ,                                                   ",
"                                                    # $ % & * = - - > , , ' ) !                                                 ",
"                                                  % & * = - - ; > , , ' ) ! ! ~ {                                               ",
"                                                      - - ; > , ' ) ! ! ~                                                       ",
"                                      $                     ' )                                                                 ",
"                                # $ %                                                   ] ^ /                                   ",
"                        @ # $ % & * =                                                 ^ / ( _ : < [                             ",
"                  + @ # $ % & * = - -                                               ( ( _ : < [ [ } | 1 1                       ",
"              + @ # % & * = - - ; >                                                 _ < [ [ } | 1 1 2 3 4 5 6                   ",
"              $ % & * = - - ; > , ,                                               < [ [ } | 1 1 2 3 4 5 6 7 8 9 0 a             ",
"              * = - - ; > , , ' )                                                 } | 1 1 2 3 4 5 6 7 8 9 0 a b c d e f         ",
"              - - ; > , , ' )                                                     1 1 2 3 4 5 6 7 8 9 0 a b c d f g h i i j     ",
"                , , ' ) ! !                                                         4 5 6 7 8 9 0 a b c d e f g h i i j k l m   ",
"                ' ) ! ! ~                                                             7 8 9 0 a b c d e f h i i j k l m n n     ",
"                ! ~ {                                                                   a b c d e f g h i i j k l m             ",
"                  o                                                                       d e f g h i j k l m n                 ",
"                                                                                            h i i j k l m                       ",
"                                                                                              j k m                             ",
"                                                                                                                                ",
"                                                                                                                                ",
"                ^ / ( (                                                                                                         ",
"              / ( ( _ < [ [ }                                                                                                   ",
"              _ : < [ [ } | 1                               g h i i j k l m n n p q r s                                         ",
"            : < [ } | 1 1 2 3                             h i i j k l m n n p q r t u u v                                       ",
"            [ } | 1 1 2 3 4 5                           i j k l m n n p q r s t u u v w x y                                     ",
"          } 1 1 2 3 4 5 6 7 8                         j k l m n n p q r s t u v w x y z A B                                     ",
"          1 2 3 4 5 6 7 8 9 0                       l m n n p q r s t u u v w x y z A B C D                                     ",
"        3 4 5 6 7 8 9 0 a b c                     m n n p q r s t u u v w y z A B C D E F                                       ",
"        5 6 7 8 9 0 a b c d e f                   p q r s t u u v w x y z A B C D E F G H                                       ",
"      7 8 9 0 a b c d e f g h i                 q r s t u u v w x y A B C D E F G H H I J                                       ",
"      9 0 a b c d e f g h i i j               s t u u v w x y z A B C D E F G H H I J K L                                       ",
"      b c d e f g h i i j k l m             t u u v w x y z A B D E F G H H I J K L M N O                                       ",
"    c d e f g h i i j k l m                 v w x y z A B C D E F G H H I J K L M N O P Q                                       ",
"    f g h i i j k l m n                     x y z A B C D E G H H I J K L M N O P Q R S T                                       ",
"    h i i j k l m n                             C D E F G H H I J K L M N O P Q R S T T U                                       ",
"  i j k l m n n                                   F G H I J K L M N O P Q R S T T U V W X                                       ",
"  k l m n n                                         I J K L M N O P Q R S T T U V W X Y Z                                       ",
"  n n p                                               M N O P Q R S T T U V W X ` Y Z  ...                                      ",
"n p                                                     P Q R S T T U V W X ` Y  ...+.@.#.                                      ",
"                                                          T T U V W X ` Y Z  ...+.@.#.$.$.                                      ",
"                                                              W X ` Y Z  ...@.#.$.$.%.&.*.                                      ",
"                                                                Z  ...+.@.#.$.$.%.&.*.=.=.                                      ",
"                                                                  +.@.$.$.%.&.*.=.=.-.;.>.                                      ",
"                                                                    $.%.&.*.=.=.-.;.>.,.'.                                      ",
"                                                                      =.=.-.;.>.,.'.).!.~.                                      ",
"                                                                          >.,.'.).!.~.{.].                                      ",
"                                                                            !.~.{.].^././.                                      ",
"                                                                              ].^././.(._.                                      ",
"                                                                                (._.:.<.[.                                      ",
"                                                                                  <.[.}.|.                                      ",
"                                                                                      1.2.                                      ",
"                                                                                        3.                                      ",
"                                                                                                                                ",
"                                                                                                                                ",
"                                                                                                                                ",
"                                                                                                                                "};
